<?xml version="1.0" encoding="utf-8"?>
<!-- Generator: Adobe Illustrator 22.1.0, SVG Export Plug-In . SVG Version: 6.00 Build 0)  -->
<svg version="1.1" id="Layer_1" xmlns="http://www.w3.org/2000/svg" xmlns:xlink="http://www.w3.org/1999/xlink" x="0px" y="0px"
	 viewBox="0 0 500 50" style="enable-background:new 0 0 500 50;" xml:space="preserve">
<style type="text/css">
	.st0{fill:url(#SVGID_1_);}
	.st1{fill:url(#SVGID_2_);}
	.st2{fill:url(#SVGID_3_);}
	.st3{fill:url(#SVGID_4_);}
	.st4{fill:url(#SVGID_5_);}
	.st5{fill:url(#SVGID_6_);}
	.st6{fill:url(#SVGID_7_);}
	.st7{fill:url(#SVGID_8_);}
	.st8{fill:url(#SVGID_9_);}
	.st9{fill:url(#SVGID_10_);}
	.st10{fill:url(#SVGID_11_);}
	.st11{fill:url(#SVGID_12_);}
	.st12{fill:url(#SVGID_13_);}
	.st13{fill:url(#SVGID_14_);}
</style>
<g>
	<g>
		<linearGradient id="SVGID_1_" gradientUnits="userSpaceOnUse" x1="25.7559" y1="24.8879" x2="469.7754" y2="24.8879">
			<stop  offset="0" style="stop-color:#22215E"/>
			<stop  offset="3.110978e-02" style="stop-color:#242362"/>
			<stop  offset="0.6013" style="stop-color:#3F469A"/>
			<stop  offset="1" style="stop-color:#787CB9;stop-opacity:0.9"/>
		</linearGradient>
		<path class="st0" d="M25.8,6.5c3-0.4,6.5-0.8,10.4-0.8c7,0,12,1.6,15.3,4.7c3.4,3.1,5.3,7.4,5.3,13.6c0,6.2-1.9,11.2-5.4,14.7
			c-3.5,3.5-9.4,5.4-16.7,5.4c-3.5,0-6.4-0.2-8.8-0.4V6.5z M30.6,39.9c1.2,0.2,3,0.3,4.9,0.3c10.4,0,16.1-5.8,16.1-16
			c0.1-8.9-5-14.6-15.3-14.6c-2.5,0-4.4,0.2-5.7,0.5V39.9z"/>
		<linearGradient id="SVGID_2_" gradientUnits="userSpaceOnUse" x1="25.7559" y1="24.8879" x2="469.7754" y2="24.8879">
			<stop  offset="0" style="stop-color:#22215E"/>
			<stop  offset="3.110978e-02" style="stop-color:#242362"/>
			<stop  offset="0.6013" style="stop-color:#3F469A"/>
			<stop  offset="1" style="stop-color:#787CB9;stop-opacity:0.9"/>
		</linearGradient>
		<path class="st1" d="M67.9,6v37.7h-4.9V6H67.9z"/>
		<linearGradient id="SVGID_3_" gradientUnits="userSpaceOnUse" x1="25.7559" y1="24.8879" x2="469.7754" y2="24.8879">
			<stop  offset="0" style="stop-color:#22215E"/>
			<stop  offset="3.110978e-02" style="stop-color:#242362"/>
			<stop  offset="0.6013" style="stop-color:#3F469A"/>
			<stop  offset="1" style="stop-color:#787CB9;stop-opacity:0.9"/>
		</linearGradient>
		<path class="st2" d="M82.5,31.9l-3.9,11.9h-5L86.4,6h5.9l12.9,37.7H100l-4-11.9H82.5z M94.9,28.1l-3.7-10.9
			c-0.8-2.5-1.4-4.7-2-6.9h-0.1c-0.6,2.2-1.2,4.5-1.9,6.8l-3.7,10.9H94.9z"/>
		<linearGradient id="SVGID_4_" gradientUnits="userSpaceOnUse" x1="25.7559" y1="24.8879" x2="469.7754" y2="24.8879">
			<stop  offset="0" style="stop-color:#22215E"/>
			<stop  offset="3.110978e-02" style="stop-color:#242362"/>
			<stop  offset="0.6013" style="stop-color:#3F469A"/>
			<stop  offset="1" style="stop-color:#787CB9;stop-opacity:0.9"/>
		</linearGradient>
		<path class="st3" d="M110,37.8c2.2,1.3,5.4,2.5,8.7,2.5c5,0,7.9-2.6,7.9-6.4c0-3.5-2-5.5-7.1-7.5c-6.2-2.2-10-5.4-10-10.7
			c0-5.9,4.9-10.2,12.2-10.2c3.9,0,6.7,0.9,8.3,1.8l-1.3,4c-1.2-0.7-3.8-1.8-7.2-1.8c-5.2,0-7.1,3.1-7.1,5.7c0,3.5,2.3,5.3,7.5,7.3
			c6.4,2.5,9.6,5.5,9.6,11.1c0,5.8-4.3,10.9-13.2,10.9c-3.6,0-7.6-1.1-9.6-2.4L110,37.8z"/>
		<linearGradient id="SVGID_5_" gradientUnits="userSpaceOnUse" x1="25.7559" y1="24.8879" x2="469.7754" y2="24.8879">
			<stop  offset="0" style="stop-color:#22215E"/>
			<stop  offset="3.110978e-02" style="stop-color:#242362"/>
			<stop  offset="0.6013" style="stop-color:#3F469A"/>
			<stop  offset="1" style="stop-color:#787CB9;stop-opacity:0.9"/>
		</linearGradient>
		<path class="st4" d="M138.3,6.5c2.4-0.4,5.4-0.7,9.4-0.7c4.8,0,8.3,1.1,10.6,3.1c2.1,1.8,3.3,4.5,3.3,7.9c0,3.4-1,6.1-2.9,8.1
			c-2.6,2.7-6.8,4.1-11.5,4.1c-1.5,0-2.8-0.1-3.9-0.3v15.1h-4.9V6.5z M143.2,24.7c1.1,0.3,2.4,0.4,4,0.4c5.9,0,9.5-2.9,9.5-8.1
			c0-5-3.5-7.4-8.9-7.4c-2.1,0-3.8,0.2-4.6,0.4V24.7z"/>
		<linearGradient id="SVGID_6_" gradientUnits="userSpaceOnUse" x1="25.7559" y1="24.8879" x2="469.7754" y2="24.8879">
			<stop  offset="0" style="stop-color:#22215E"/>
			<stop  offset="3.110978e-02" style="stop-color:#242362"/>
			<stop  offset="0.6013" style="stop-color:#3F469A"/>
			<stop  offset="1" style="stop-color:#787CB9;stop-opacity:0.9"/>
		</linearGradient>
		<path class="st5" d="M200.4,24.5c0,13-7.9,19.9-17.5,19.9c-10,0-17-7.7-17-19.2c0-12,7.4-19.8,17.5-19.8
			C193.7,5.4,200.4,13.3,200.4,24.5z M171.1,25.1c0,8.1,4.4,15.3,12,15.3c7.7,0,12.1-7.1,12.1-15.7c0-7.5-3.9-15.3-12-15.3
			C175.1,9.4,171.1,16.8,171.1,25.1z"/>
		<linearGradient id="SVGID_7_" gradientUnits="userSpaceOnUse" x1="25.7559" y1="24.8879" x2="469.7754" y2="24.8879">
			<stop  offset="0" style="stop-color:#22215E"/>
			<stop  offset="3.110978e-02" style="stop-color:#242362"/>
			<stop  offset="0.6013" style="stop-color:#3F469A"/>
			<stop  offset="1" style="stop-color:#787CB9;stop-opacity:0.9"/>
		</linearGradient>
		<path class="st6" d="M206.7,6.5c2.5-0.5,6-0.8,9.4-0.8c5.2,0,8.6,1,10.9,3.1c1.9,1.7,3,4.3,3,7.2c0,5-3.1,8.3-7.1,9.6v0.2
			c2.9,1,4.6,3.7,5.5,7.6c1.2,5.3,2.1,8.9,2.9,10.4h-5c-0.6-1.1-1.5-4.3-2.5-9c-1.1-5.2-3.1-7.2-7.6-7.3h-4.6v16.4h-4.9V6.5z
			 M211.6,23.7h5c5.2,0,8.5-2.9,8.5-7.2c0-4.9-3.5-7-8.7-7.1c-2.4,0-4,0.2-4.8,0.4V23.7z"/>
		<linearGradient id="SVGID_8_" gradientUnits="userSpaceOnUse" x1="25.7559" y1="24.8879" x2="469.7754" y2="24.8879">
			<stop  offset="0" style="stop-color:#22215E"/>
			<stop  offset="3.110978e-02" style="stop-color:#242362"/>
			<stop  offset="0.6013" style="stop-color:#3F469A"/>
			<stop  offset="1" style="stop-color:#787CB9;stop-opacity:0.9"/>
		</linearGradient>
		<path class="st7" d="M242.9,31.9L239,43.8h-5L246.8,6h5.9l12.9,37.7h-5.2l-4-11.9H242.9z M255.3,28.1l-3.7-10.9
			c-0.8-2.5-1.4-4.7-2-6.9h-0.1c-0.6,2.2-1.2,4.5-1.9,6.8l-3.7,10.9H255.3z"/>
		<linearGradient id="SVGID_9_" gradientUnits="userSpaceOnUse" x1="25.7559" y1="24.8879" x2="469.7754" y2="24.8879">
			<stop  offset="0" style="stop-color:#22215E"/>
			<stop  offset="3.110978e-02" style="stop-color:#242362"/>
			<stop  offset="0.6013" style="stop-color:#3F469A"/>
			<stop  offset="1" style="stop-color:#787CB9;stop-opacity:0.9"/>
		</linearGradient>
		<path class="st8" d="M311.7,42.1c-2.2,0.8-6.5,2.1-11.6,2.1c-5.7,0-10.4-1.5-14.1-5c-3.2-3.1-5.3-8.2-5.3-14.1
			c0.1-11.3,7.8-19.5,20.4-19.5c4.4,0,7.8,1,9.4,1.7l-1.2,4c-2-0.9-4.5-1.6-8.3-1.6c-9.2,0-15.2,5.7-15.2,15.2
			c0,9.6,5.8,15.2,14.6,15.2c3.2,0,5.4-0.4,6.5-1V27.9h-7.7v-3.9h12.4V42.1z"/>
		<linearGradient id="SVGID_10_" gradientUnits="userSpaceOnUse" x1="25.7559" y1="24.8879" x2="469.7754" y2="24.8879">
			<stop  offset="0" style="stop-color:#22215E"/>
			<stop  offset="3.110978e-02" style="stop-color:#242362"/>
			<stop  offset="0.6013" style="stop-color:#3F469A"/>
			<stop  offset="1" style="stop-color:#787CB9;stop-opacity:0.9"/>
		</linearGradient>
		<path class="st9" d="M319.1,6h4.9v33.7h16.1v4.1h-21V6z"/>
		<linearGradient id="SVGID_11_" gradientUnits="userSpaceOnUse" x1="25.7559" y1="24.8879" x2="469.7754" y2="24.8879">
			<stop  offset="0" style="stop-color:#22215E"/>
			<stop  offset="3.110978e-02" style="stop-color:#242362"/>
			<stop  offset="0.6013" style="stop-color:#3F469A"/>
			<stop  offset="1" style="stop-color:#787CB9;stop-opacity:0.9"/>
		</linearGradient>
		<path class="st10" d="M377.8,24.5c0,13-7.9,19.9-17.5,19.9c-10,0-17-7.7-17-19.2c0-12,7.4-19.8,17.5-19.8
			C371.2,5.4,377.8,13.3,377.8,24.5z M348.5,25.1c0,8.1,4.4,15.3,12,15.3c7.7,0,12.1-7.1,12.1-15.7c0-7.5-3.9-15.3-12-15.3
			C352.6,9.4,348.5,16.8,348.5,25.1z"/>
		<linearGradient id="SVGID_12_" gradientUnits="userSpaceOnUse" x1="25.7559" y1="24.8879" x2="469.7754" y2="24.8879">
			<stop  offset="0" style="stop-color:#22215E"/>
			<stop  offset="3.110978e-02" style="stop-color:#242362"/>
			<stop  offset="0.6013" style="stop-color:#3F469A"/>
			<stop  offset="1" style="stop-color:#787CB9;stop-opacity:0.9"/>
		</linearGradient>
		<path class="st11" d="M384.2,6.5c2.1-0.4,5.5-0.8,8.9-0.8c4.9,0,8,0.8,10.4,2.7c2,1.5,3.1,3.7,3.1,6.7c0,3.6-2.4,6.8-6.4,8.3v0.1
			c3.6,0.9,7.8,3.9,7.8,9.5c0,3.2-1.3,5.7-3.2,7.6c-2.6,2.4-6.9,3.5-13,3.5c-3.4,0-5.9-0.2-7.6-0.4V6.5z M389,22h4.4
			c5.2,0,8.2-2.7,8.2-6.3c0-4.4-3.4-6.2-8.3-6.2c-2.2,0-3.5,0.2-4.3,0.3V22z M389,40.1c1,0.2,2.4,0.2,4.1,0.2c5,0,9.7-1.8,9.7-7.3
			c0-5.2-4.4-7.3-9.7-7.3h-4V40.1z"/>
		<linearGradient id="SVGID_13_" gradientUnits="userSpaceOnUse" x1="25.7559" y1="24.8879" x2="469.7754" y2="24.8879">
			<stop  offset="0" style="stop-color:#22215E"/>
			<stop  offset="3.110978e-02" style="stop-color:#242362"/>
			<stop  offset="0.6013" style="stop-color:#3F469A"/>
			<stop  offset="1" style="stop-color:#787CB9;stop-opacity:0.9"/>
		</linearGradient>
		<path class="st12" d="M420.6,31.9l-3.9,11.9h-5L424.5,6h5.9l12.9,37.7H438l-4-11.9H420.6z M433,28.1l-3.7-10.9
			c-0.8-2.5-1.4-4.7-2-6.9h-0.1c-0.6,2.2-1.2,4.5-1.9,6.8l-3.7,10.9H433z"/>
		<linearGradient id="SVGID_14_" gradientUnits="userSpaceOnUse" x1="25.7559" y1="24.8879" x2="469.7754" y2="24.8879">
			<stop  offset="0" style="stop-color:#22215E"/>
			<stop  offset="3.110978e-02" style="stop-color:#242362"/>
			<stop  offset="0.6013" style="stop-color:#3F469A"/>
			<stop  offset="1" style="stop-color:#787CB9;stop-opacity:0.9"/>
		</linearGradient>
		<path class="st13" d="M448.8,6h4.9v33.7h16.1v4.1h-21V6z"/>
	</g>
</g>
</svg>
