<?xml version="1.0" encoding="utf-8"?>
<!-- Generator: Adobe Illustrator 22.1.0, SVG Export Plug-In . SVG Version: 6.00 Build 0)  -->
<svg version="1.1" id="Layer_1" xmlns="http://www.w3.org/2000/svg" xmlns:xlink="http://www.w3.org/1999/xlink" x="0px" y="0px"
	 viewBox="0 0 500 100" style="enable-background:new 0 0 500 100;" xml:space="preserve">
<style type="text/css">
	.st0{fill:url(#SVGID_1_);}
	.st1{fill:url(#SVGID_2_);}
	.st2{fill:url(#SVGID_3_);}
	.st3{fill:url(#SVGID_4_);}
	.st4{fill:url(#SVGID_5_);}
	.st5{fill:url(#SVGID_6_);}
	.st6{fill:url(#SVGID_7_);}
	.st7{fill:url(#SVGID_8_);}
	.st8{fill:url(#SVGID_9_);}
	.st9{fill:url(#SVGID_10_);}
	.st10{fill:url(#SVGID_11_);}
	.st11{fill:url(#SVGID_12_);}
	.st12{fill:url(#SVGID_13_);}
	.st13{fill:url(#SVGID_14_);}
</style>
<g>
	<g>
		<linearGradient id="SVGID_1_" gradientUnits="userSpaceOnUse" x1="8.2456" y1="50.5457" x2="492.4824" y2="50.5457">
			<stop  offset="0" style="stop-color:#22215F"/>
			<stop  offset="0.4971" style="stop-color:#3F4699"/>
			<stop  offset="1" style="stop-color:#787CB9"/>
		</linearGradient>
		<path class="st0" d="M8.2,31.2H19c3.3,0,6.3,0.5,9,1.4c2.7,1,5,2.3,7,4c1.9,1.7,3.4,3.8,4.5,6.1c1,2.4,1.6,4.9,1.6,7.7
			s-0.5,5.4-1.6,7.7c-1,2.4-2.5,4.4-4.5,6.1c-1.9,1.7-4.3,3.1-7,4c-2.7,1-5.7,1.4-9,1.4H8.2V31.2z M19,65.6c2.3,0,4.5-0.3,6.5-1
			c2-0.7,3.8-1.7,5.3-2.9c1.5-1.3,2.7-2.8,3.6-4.7s1.3-4,1.3-6.4c0-2.4-0.4-4.5-1.3-6.4c-0.9-1.9-2.1-3.5-3.6-4.7
			c-1.5-1.3-3.3-2.3-5.3-2.9c-2-0.7-4.2-1-6.5-1h-5.4v30H19z"/>
		<linearGradient id="SVGID_2_" gradientUnits="userSpaceOnUse" x1="8.2456" y1="50.5457" x2="492.4824" y2="50.5457">
			<stop  offset="0" style="stop-color:#22215F"/>
			<stop  offset="0.4971" style="stop-color:#3F4699"/>
			<stop  offset="1" style="stop-color:#787CB9"/>
		</linearGradient>
		<path class="st1" d="M53.5,69.9h-5.3V31.2h5.3V69.9z"/>
		<linearGradient id="SVGID_3_" gradientUnits="userSpaceOnUse" x1="8.2456" y1="50.5457" x2="492.4824" y2="50.5457">
			<stop  offset="0" style="stop-color:#22215F"/>
			<stop  offset="0.4971" style="stop-color:#3F4699"/>
			<stop  offset="1" style="stop-color:#787CB9"/>
		</linearGradient>
		<path class="st2" d="M96,69.9h-5.5L87,60.5H69l-3.5,9.3H60l15.4-38.6h5.2L96,69.9z M70.6,56.2h14.8L78,36.1L70.6,56.2z"/>
		<linearGradient id="SVGID_4_" gradientUnits="userSpaceOnUse" x1="8.2456" y1="50.5457" x2="492.4824" y2="50.5457">
			<stop  offset="0" style="stop-color:#22215F"/>
			<stop  offset="0.4971" style="stop-color:#3F4699"/>
			<stop  offset="1" style="stop-color:#787CB9"/>
		</linearGradient>
		<path class="st3" d="M124.5,59.8c0,1.7-0.4,3.2-1.1,4.5c-0.7,1.3-1.7,2.4-2.9,3.4c-1.2,0.9-2.6,1.6-4.3,2.1
			c-1.6,0.5-3.4,0.8-5.3,0.8c-1.9,0-3.8-0.2-5.7-0.6c-2-0.4-3.7-1-5.4-1.7l1-4.2c1.4,0.7,3,1.2,4.7,1.6c1.7,0.4,3.5,0.6,5.2,0.6
			c2.5,0,4.5-0.5,6.1-1.6c1.5-1.1,2.3-2.6,2.3-4.6c0-1.1-0.2-2.1-0.7-2.9c-0.4-0.8-1.1-1.5-1.8-2.1c-0.8-0.6-1.7-1.2-2.7-1.7
			c-1-0.5-2.1-1-3.3-1.6c-1.3-0.6-2.6-1.3-3.8-1.9c-1.2-0.7-2.3-1.4-3.2-2.3c-0.9-0.9-1.7-1.9-2.2-3c-0.6-1.1-0.8-2.4-0.8-3.9
			c0-1.7,0.3-3.1,0.9-4.4c0.6-1.3,1.4-2.3,2.5-3.2c1.1-0.9,2.4-1.5,3.9-1.9c1.5-0.4,3.2-0.6,5-0.6c1.9,0,3.7,0.2,5.4,0.6
			c1.8,0.4,3.3,1,4.6,1.7l-1,4.2c-1.2-0.7-2.6-1.2-4.2-1.6c-1.6-0.4-3.2-0.6-4.8-0.6c-4.7,0-7,1.8-7,5.5c0,0.8,0.1,1.5,0.3,2.1
			c0.2,0.6,0.6,1.2,1.1,1.7c0.5,0.5,1.2,1,2.1,1.5c0.9,0.5,1.9,1,3.2,1.7c1.2,0.6,2.6,1.3,3.9,2c1.4,0.7,2.7,1.6,3.8,2.6
			s2.1,2.1,2.9,3.5C124.1,56.6,124.5,58.1,124.5,59.8z"/>
		<linearGradient id="SVGID_5_" gradientUnits="userSpaceOnUse" x1="8.2456" y1="50.5457" x2="492.4824" y2="50.5457">
			<stop  offset="0" style="stop-color:#22215F"/>
			<stop  offset="0.4971" style="stop-color:#3F4699"/>
			<stop  offset="1" style="stop-color:#787CB9"/>
		</linearGradient>
		<path class="st4" d="M155.4,42.5c0,1.9-0.4,3.5-1.2,5c-0.8,1.5-1.9,2.8-3.4,3.8c-1.5,1-3.2,1.8-5.1,2.4c-2,0.6-4.1,0.8-6.4,0.8
			h-2.7v15.3h-5.3V31.2h9.3c2.1,0,4,0.2,5.8,0.7c1.8,0.5,3.4,1.2,4.7,2.1c1.3,0.9,2.4,2.1,3.1,3.5C155.1,39,155.4,40.6,155.4,42.5z
			 M150.1,42.5c0-1.3-0.3-2.3-0.8-3.2c-0.5-0.9-1.2-1.6-2.1-2.1c-0.9-0.6-1.9-1-3.1-1.2c-1.2-0.3-2.4-0.4-3.7-0.4h-3.8v14.8h2.8
			c1.5,0,3-0.2,4.3-0.5c1.3-0.3,2.4-0.9,3.4-1.5c0.9-0.7,1.7-1.5,2.2-2.5C149.9,44.8,150.1,43.7,150.1,42.5z"/>
		<linearGradient id="SVGID_6_" gradientUnits="userSpaceOnUse" x1="8.2456" y1="50.5457" x2="492.4824" y2="50.5457">
			<stop  offset="0" style="stop-color:#22215F"/>
			<stop  offset="0.4971" style="stop-color:#3F4699"/>
			<stop  offset="1" style="stop-color:#787CB9"/>
		</linearGradient>
		<path class="st5" d="M177.6,70.6c-3,0-5.7-0.5-8.1-1.6c-2.4-1.1-4.3-2.5-5.9-4.3c-1.6-1.8-2.8-3.9-3.6-6.4c-0.8-2.4-1.2-5-1.2-7.7
			s0.4-5.2,1.2-7.7c0.8-2.4,2-4.6,3.6-6.4c1.6-1.8,3.6-3.3,5.9-4.4c2.4-1.1,5-1.6,8.1-1.6s5.7,0.5,8.1,1.6c2.4,1.1,4.3,2.5,5.9,4.4
			c1.6,1.8,2.8,3.9,3.6,6.4c0.8,2.4,1.2,5,1.2,7.7s-0.4,5.2-1.2,7.7c-0.8,2.4-2,4.6-3.6,6.4c-1.6,1.8-3.6,3.3-5.9,4.3
			C183.3,70,180.6,70.6,177.6,70.6z M177.6,66.3c2.2,0,4.2-0.4,5.9-1.2c1.7-0.8,3.1-1.9,4.2-3.4c1.1-1.4,2-3.1,2.6-5s0.9-4,0.9-6.1
			c0-2.2-0.3-4.2-0.9-6.1s-1.4-3.6-2.6-5c-1.1-1.4-2.5-2.5-4.2-3.4c-1.7-0.8-3.7-1.2-5.9-1.2s-4.2,0.4-5.9,1.2
			c-1.7,0.8-3.1,2-4.2,3.4c-1.1,1.4-2,3.1-2.6,5s-0.9,4-0.9,6.1c0,2.2,0.3,4.2,0.9,6.1s1.4,3.6,2.6,5c1.1,1.4,2.5,2.6,4.2,3.4
			C173.4,65.9,175.4,66.3,177.6,66.3z"/>
		<linearGradient id="SVGID_7_" gradientUnits="userSpaceOnUse" x1="8.2456" y1="50.5457" x2="492.4824" y2="50.5457">
			<stop  offset="0" style="stop-color:#22215F"/>
			<stop  offset="0.4971" style="stop-color:#3F4699"/>
			<stop  offset="1" style="stop-color:#787CB9"/>
		</linearGradient>
		<path class="st6" d="M209,69.9h-5.3V31.2h10c2.1,0,4,0.2,5.8,0.7c1.8,0.5,3.4,1.2,4.7,2.1c1.4,0.9,2.4,2,3.2,3.4
			c0.8,1.4,1.2,2.9,1.2,4.7c0,2.7-0.9,5-2.6,7c-1.7,2-4.1,3.4-7.2,4.3l13.6,16.5h-6.6l-12.6-15.5c-0.2,0-0.5,0-0.9,0
			c-0.4,0-0.8,0-1.2,0c-0.4,0-0.8,0-1.2,0c-0.4,0-0.7,0-1,0V69.9z M223.3,42.3c0-1.2-0.3-2.2-0.8-3.1s-1.2-1.6-2.1-2.1
			c-0.9-0.5-1.9-0.9-3.1-1.2c-1.2-0.3-2.4-0.4-3.7-0.4H209v14.6h2.7c1.6,0,3.1-0.2,4.6-0.5c1.4-0.3,2.6-0.8,3.7-1.4
			c1-0.6,1.9-1.4,2.5-2.4C223,44.8,223.3,43.6,223.3,42.3z"/>
		<linearGradient id="SVGID_8_" gradientUnits="userSpaceOnUse" x1="8.2456" y1="50.5457" x2="492.4824" y2="50.5457">
			<stop  offset="0" style="stop-color:#22215F"/>
			<stop  offset="0.4971" style="stop-color:#3F4699"/>
			<stop  offset="1" style="stop-color:#787CB9"/>
		</linearGradient>
		<path class="st7" d="M270.5,69.9h-5.5l-3.5-9.3h-18l-3.5,9.3h-5.5l15.4-38.6h5.2L270.5,69.9z M245.1,56.2H260l-7.4-20.1
			L245.1,56.2z"/>
		<linearGradient id="SVGID_9_" gradientUnits="userSpaceOnUse" x1="8.2456" y1="50.5457" x2="492.4824" y2="50.5457">
			<stop  offset="0" style="stop-color:#22215F"/>
			<stop  offset="0.4971" style="stop-color:#3F4699"/>
			<stop  offset="1" style="stop-color:#787CB9"/>
		</linearGradient>
		<path class="st8" d="M307.8,30.5c2.2,0,4.2,0.2,6.2,0.6c2,0.4,3.8,0.9,5.3,1.7l-0.9,4.2c-1.7-0.7-3.4-1.2-5.2-1.6
			c-1.8-0.4-3.6-0.6-5.4-0.6c-4.8,0-8.6,1.4-11.3,4.2c-2.7,2.8-4.1,6.8-4.1,11.9c0,4.9,1.3,8.7,3.9,11.4c2.6,2.6,6.5,4,11.7,4
			c1.2,0,2.5-0.1,3.7-0.3c1.3-0.2,2.3-0.4,3.2-0.7V52.8h4.9v15.6c-1.5,0.6-3.3,1.1-5.6,1.6c-2.3,0.4-4.6,0.6-6.8,0.6
			c-3.2,0-6-0.5-8.5-1.4c-2.5-0.9-4.6-2.3-6.4-4s-3.1-3.8-4-6.2c-0.9-2.4-1.4-5-1.4-7.9c0-3,0.5-5.8,1.4-8.3
			c0.9-2.5,2.3-4.7,4.1-6.5c1.8-1.8,3.9-3.2,6.5-4.2C301.7,31,304.6,30.5,307.8,30.5z"/>
		<linearGradient id="SVGID_10_" gradientUnits="userSpaceOnUse" x1="8.2456" y1="50.5457" x2="492.4824" y2="50.5457">
			<stop  offset="0" style="stop-color:#22215F"/>
			<stop  offset="0.4971" style="stop-color:#3F4699"/>
			<stop  offset="1" style="stop-color:#787CB9"/>
		</linearGradient>
		<path class="st9" d="M333.9,31.2v34.3H350v4.3h-21.5V31.2H333.9z"/>
		<linearGradient id="SVGID_11_" gradientUnits="userSpaceOnUse" x1="8.2456" y1="50.5457" x2="492.4824" y2="50.5457">
			<stop  offset="0" style="stop-color:#22215F"/>
			<stop  offset="0.4971" style="stop-color:#3F4699"/>
			<stop  offset="1" style="stop-color:#787CB9"/>
		</linearGradient>
		<path class="st10" d="M372.7,70.6c-3,0-5.7-0.5-8.1-1.6c-2.4-1.1-4.3-2.5-5.9-4.3c-1.6-1.8-2.8-3.9-3.6-6.4
			c-0.8-2.4-1.2-5-1.2-7.7s0.4-5.2,1.2-7.7c0.8-2.4,2-4.6,3.6-6.4c1.6-1.8,3.6-3.3,5.9-4.4c2.4-1.1,5-1.6,8.1-1.6s5.7,0.5,8.1,1.6
			c2.4,1.1,4.3,2.5,5.9,4.4c1.6,1.8,2.8,3.9,3.6,6.4c0.8,2.4,1.2,5,1.2,7.7s-0.4,5.2-1.2,7.7c-0.8,2.4-2,4.6-3.6,6.4
			c-1.6,1.8-3.6,3.3-5.9,4.3C378.4,70,375.7,70.6,372.7,70.6z M372.7,66.3c2.2,0,4.2-0.4,5.9-1.2c1.7-0.8,3.1-1.9,4.2-3.4
			c1.1-1.4,2-3.1,2.6-5c0.6-1.9,0.9-4,0.9-6.1c0-2.2-0.3-4.2-0.9-6.1c-0.6-1.9-1.4-3.6-2.6-5c-1.1-1.4-2.5-2.5-4.2-3.4
			c-1.7-0.8-3.7-1.2-5.9-1.2s-4.2,0.4-5.9,1.2c-1.7,0.8-3.1,2-4.2,3.4c-1.1,1.4-2,3.1-2.6,5s-0.9,4-0.9,6.1c0,2.2,0.3,4.2,0.9,6.1
			s1.4,3.6,2.6,5c1.1,1.4,2.5,2.6,4.2,3.4S370.5,66.3,372.7,66.3z"/>
		<linearGradient id="SVGID_12_" gradientUnits="userSpaceOnUse" x1="8.2456" y1="50.5457" x2="492.4824" y2="50.5457">
			<stop  offset="0" style="stop-color:#22215F"/>
			<stop  offset="0.4971" style="stop-color:#3F4699"/>
			<stop  offset="1" style="stop-color:#787CB9"/>
		</linearGradient>
		<path class="st11" d="M424.7,59.1c0,1.6-0.4,3.1-1.1,4.4s-1.7,2.5-3.1,3.4c-1.3,0.9-2.9,1.7-4.7,2.2c-1.8,0.5-3.9,0.8-6.1,0.8
			h-10.9V31.2h12c1.9,0,3.6,0.2,5.1,0.7s2.9,1.1,4,1.9c1.1,0.8,2,1.8,2.6,3s0.9,2.4,0.9,3.8c0,2.2-0.7,4.1-2.2,5.6
			c-1.5,1.5-3.4,2.7-5.7,3.4c2.9,0.5,5.1,1.6,6.8,3.2C423.9,54.4,424.7,56.5,424.7,59.1z M408.8,47.8c1.3,0,2.5-0.2,3.7-0.5
			c1.1-0.3,2.1-0.7,3-1.3c0.8-0.6,1.5-1.3,1.9-2.1s0.7-1.7,0.7-2.8c0-1.9-0.7-3.4-2.2-4.3c-1.5-1-3.3-1.4-5.7-1.4h-6.4v12.4H408.8z
			 M419.6,58.9c0-1.2-0.3-2.2-0.8-3c-0.5-0.9-1.3-1.6-2.2-2.1c-0.9-0.6-2-1-3.3-1.2c-1.2-0.3-2.6-0.4-4-0.4h-5.5v13.6h6.2
			c2.9,0,5.2-0.6,7-1.7C418.8,62.8,419.6,61.1,419.6,58.9z"/>
		<linearGradient id="SVGID_13_" gradientUnits="userSpaceOnUse" x1="8.2456" y1="50.5457" x2="492.4824" y2="50.5457">
			<stop  offset="0" style="stop-color:#22215F"/>
			<stop  offset="0.4971" style="stop-color:#3F4699"/>
			<stop  offset="1" style="stop-color:#787CB9"/>
		</linearGradient>
		<path class="st12" d="M464.8,69.9h-5.5l-3.5-9.3h-18l-3.5,9.3h-5.5l15.4-38.6h5.2L464.8,69.9z M439.4,56.2h14.8l-7.4-20.1
			L439.4,56.2z"/>
		<linearGradient id="SVGID_14_" gradientUnits="userSpaceOnUse" x1="8.2456" y1="50.5457" x2="492.4824" y2="50.5457">
			<stop  offset="0" style="stop-color:#22215F"/>
			<stop  offset="0.4971" style="stop-color:#3F4699"/>
			<stop  offset="1" style="stop-color:#787CB9"/>
		</linearGradient>
		<path class="st13" d="M476.4,31.2v34.3h16.1v4.3H471V31.2H476.4z"/>
	</g>
</g>
</svg>
